HIERARCHY
ROOT Root
{
	OFFSET 0.000000 0.085527 -0.815746
	CHANNELS 6 Xposition Yposition Zposition Xrotation Yrotation Zrotation
	JOINT pelvis
	{
		OFFSET 0.000000 -0.050080 0.832290
		CHANNELS 6 Xposition Yposition Zposition Xrotation Yrotation Zrotation
		JOINT spine_01
		{
			OFFSET 0.000000 0.045650 0.072925
			CHANNELS 6 Xposition Yposition Zposition Xrotation Yrotation Zrotation
			JOINT spine_02
			{
				OFFSET 0.000000 -0.022105 0.063380
				CHANNELS 6 Xposition Yposition Zposition Xrotation Yrotation Zrotation
				JOINT spine_03
				{
					OFFSET 0.000000 -0.012215 0.091100
					CHANNELS 6 Xposition Yposition Zposition Xrotation Yrotation Zrotation
					JOINT clavicle_l
					{
						OFFSET 0.022930 -0.009180 0.229520
						CHANNELS 6 Xposition Yposition Zposition Xrotation Yrotation Zrotation
						JOINT upperarm_l
						{
							OFFSET 0.136756 0.000470 0.015666
							CHANNELS 6 Xposition Yposition Zposition Xrotation Yrotation Zrotation
							JOINT lowerarm_l
							{
								OFFSET 0.234220 0.004524 -0.003137
								CHANNELS 6 Xposition Yposition Zposition Xrotation Yrotation Zrotation
								JOINT hand_l
								{
									OFFSET 0.212684 0.006104 0.000160
									CHANNELS 6 Xposition Yposition Zposition Xrotation Yrotation Zrotation
									JOINT index_01_l
									{
										OFFSET 0.092008 -0.031038 0.000297
										CHANNELS 6 Xposition Yposition Zposition Xrotation Yrotation Zrotation
										JOINT index_02_l
										{
											OFFSET 0.023321 0.000570 -0.003231
											CHANNELS 6 Xposition Yposition Zposition Xrotation Yrotation Zrotation
											JOINT index_03_l
											{
												OFFSET 0.020689 0.001655 -0.002999
												CHANNELS 6 Xposition Yposition Zposition Xrotation Yrotation Zrotation
												End Site
												{
													OFFSET 0.024098 0.001807 -0.006982
												}
											}
										}
									}
									JOINT middle_01_l
									{
										OFFSET 0.092159 -0.008797 0.003867
										CHANNELS 6 Xposition Yposition Zposition Xrotation Yrotation Zrotation
										JOINT middle_02_l
										{
											OFFSET 0.030470 0.001014 -0.005929
											CHANNELS 6 Xposition Yposition Zposition Xrotation Yrotation Zrotation
											JOINT middle_03_l
											{
												OFFSET 0.025048 -0.000983 -0.004303
												CHANNELS 6 Xposition Yposition Zposition Xrotation Yrotation Zrotation
												End Site
												{
													OFFSET 0.023819 -0.000054 -0.007530
												}
											}
										}
									}
									JOINT pinky_01_l
									{
										OFFSET 0.082862 0.024648 -0.002413
										CHANNELS 6 Xposition Yposition Zposition Xrotation Yrotation Zrotation
										JOINT pinky_02_l
										{
											OFFSET 0.019283 0.001560 -0.001667
											CHANNELS 6 Xposition Yposition Zposition Xrotation Yrotation Zrotation
											JOINT pinky_03_l
											{
												OFFSET 0.014370 0.000155 -0.000951
												CHANNELS 6 Xposition Yposition Zposition Xrotation Yrotation Zrotation
												End Site
												{
													OFFSET 0.018072 0.000644 -0.001347
												}
											}
										}
									}
									JOINT ring_01_l
									{
										OFFSET 0.088673 0.009084 0.002846
										CHANNELS 6 Xposition Yposition Zposition Xrotation Yrotation Zrotation
										JOINT ring_02_l
										{
											OFFSET 0.027029 0.001408 -0.004536
											CHANNELS 6 Xposition Yposition Zposition Xrotation Yrotation Zrotation
											JOINT ring_03_l
											{
												OFFSET 0.022190 -0.000874 -0.003490
												CHANNELS 6 Xposition Yposition Zposition Xrotation Yrotation Zrotation
												End Site
												{
													OFFSET 0.023754 0.000552 -0.006765
												}
											}
										}
									}
									JOINT thumb_01_l
									{
										OFFSET 0.031330 -0.025202 -0.003922
										CHANNELS 6 Xposition Yposition Zposition Xrotation Yrotation Zrotation
										JOINT thumb_02_l
										{
											OFFSET 0.009065 -0.015656 -0.021920
											CHANNELS 6 Xposition Yposition Zposition Xrotation Yrotation Zrotation
											JOINT thumb_03_l
											{
												OFFSET 0.032392 -0.002609 -0.004763
												CHANNELS 6 Xposition Yposition Zposition Xrotation Yrotation Zrotation
												End Site
												{
													OFFSET 0.025615 0.005264 -0.001529
												}
											}
										}
									}
								}
							}
						}
					}
					JOINT clavicle_r
					{
						OFFSET -0.022930 -0.009180 0.229520
						CHANNELS 6 Xposition Yposition Zposition Xrotation Yrotation Zrotation
						JOINT upperarm_r
						{
							OFFSET -0.136756 0.000470 0.015666
							CHANNELS 6 Xposition Yposition Zposition Xrotation Yrotation Zrotation
							JOINT lowerarm_r
							{
								OFFSET -0.234220 0.004524 -0.003137
								CHANNELS 6 Xposition Yposition Zposition Xrotation Yrotation Zrotation
								JOINT hand_r
								{
									OFFSET -0.212684 0.006104 0.000160
									CHANNELS 6 Xposition Yposition Zposition Xrotation Yrotation Zrotation
									JOINT index_01_r
									{
										OFFSET -0.092008 -0.031038 0.000298
										CHANNELS 6 Xposition Yposition Zposition Xrotation Yrotation Zrotation
										JOINT index_02_r
										{
											OFFSET -0.023321 0.000570 -0.003231
											CHANNELS 6 Xposition Yposition Zposition Xrotation Yrotation Zrotation
											JOINT index_03_r
											{
												OFFSET -0.020689 0.001655 -0.002998
												CHANNELS 6 Xposition Yposition Zposition Xrotation Yrotation Zrotation
												End Site
												{
													OFFSET -0.024098 0.001807 -0.006982
												}
											}
										}
									}
									JOINT middle_01_r
									{
										OFFSET -0.092159 -0.008797 0.003867
										CHANNELS 6 Xposition Yposition Zposition Xrotation Yrotation Zrotation
										JOINT middle_02_r
										{
											OFFSET -0.030470 0.001014 -0.005929
											CHANNELS 6 Xposition Yposition Zposition Xrotation Yrotation Zrotation
											JOINT middle_03_r
											{
												OFFSET -0.025048 -0.000983 -0.004303
												CHANNELS 6 Xposition Yposition Zposition Xrotation Yrotation Zrotation
												End Site
												{
													OFFSET -0.023819 -0.000054 -0.007531
												}
											}
										}
									}
									JOINT pinky_01_r
									{
										OFFSET -0.082862 0.024648 -0.002413
										CHANNELS 6 Xposition Yposition Zposition Xrotation Yrotation Zrotation
										JOINT pinky_02_r
										{
											OFFSET -0.019283 0.001560 -0.001667
											CHANNELS 6 Xposition Yposition Zposition Xrotation Yrotation Zrotation
											JOINT pinky_03_r
											{
												OFFSET -0.014370 0.000155 -0.000951
												CHANNELS 6 Xposition Yposition Zposition Xrotation Yrotation Zrotation
												End Site
												{
													OFFSET -0.018072 0.000644 -0.001347
												}
											}
										}
									}
									JOINT ring_01_r
									{
										OFFSET -0.088673 0.009084 0.002846
										CHANNELS 6 Xposition Yposition Zposition Xrotation Yrotation Zrotation
										JOINT ring_02_r
										{
											OFFSET -0.027029 0.001408 -0.004536
											CHANNELS 6 Xposition Yposition Zposition Xrotation Yrotation Zrotation
											JOINT ring_03_r
											{
												OFFSET -0.022190 -0.000874 -0.003490
												CHANNELS 6 Xposition Yposition Zposition Xrotation Yrotation Zrotation
												End Site
												{
													OFFSET -0.023754 0.000552 -0.006765
												}
											}
										}
									}
									JOINT thumb_01_r
									{
										OFFSET -0.031330 -0.025202 -0.003922
										CHANNELS 6 Xposition Yposition Zposition Xrotation Yrotation Zrotation
										JOINT thumb_02_r
										{
											OFFSET -0.009062 -0.015655 -0.021922
											CHANNELS 6 Xposition Yposition Zposition Xrotation Yrotation Zrotation
											JOINT thumb_03_r
											{
												OFFSET -0.032392 -0.002610 -0.004767
												CHANNELS 6 Xposition Yposition Zposition Xrotation Yrotation Zrotation
												End Site
												{
													OFFSET -0.025615 0.005263 -0.001531
												}
											}
										}
									}
								}
							}
						}
					}
					JOINT neck_01
					{
						OFFSET 0.000000 0.013340 0.298010
						CHANNELS 6 Xposition Yposition Zposition Xrotation Yrotation Zrotation
						JOINT head
						{
							OFFSET 0.000000 -0.041895 0.111745
							CHANNELS 6 Xposition Yposition Zposition Xrotation Yrotation Zrotation
							End Site
							{
								OFFSET 0.000000 0.005880 0.136515
							}
						}
					}
				}
			}
		}
		JOINT thigh_l
		{
			OFFSET 0.095465 0.006193 -0.011170
			CHANNELS 6 Xposition Yposition Zposition Xrotation Yrotation Zrotation
			JOINT calf_l
			{
				OFFSET 0.013985 -0.030567 -0.374073
				CHANNELS 6 Xposition Yposition Zposition Xrotation Yrotation Zrotation
				JOINT foot_l
				{
					OFFSET 0.004191 0.018160 -0.382004
					CHANNELS 6 Xposition Yposition Zposition Xrotation Yrotation Zrotation
					JOINT ball_l
					{
						OFFSET 0.005407 -0.109393 -0.057975
						CHANNELS 6 Xposition Yposition Zposition Xrotation Yrotation Zrotation
						End Site
						{
							OFFSET -0.004640 -0.061770 0.000970
						}
					}
				}
			}
		}
		JOINT thigh_r
		{
			OFFSET -0.095465 0.006193 -0.011170
			CHANNELS 6 Xposition Yposition Zposition Xrotation Yrotation Zrotation
			JOINT calf_r
			{
				OFFSET -0.013985 -0.030567 -0.374073
				CHANNELS 6 Xposition Yposition Zposition Xrotation Yrotation Zrotation
				JOINT foot_r
				{
					OFFSET -0.004191 0.018160 -0.382004
					CHANNELS 6 Xposition Yposition Zposition Xrotation Yrotation Zrotation
					JOINT ball_r
					{
						OFFSET -0.005407 -0.109393 -0.057975
						CHANNELS 6 Xposition Yposition Zposition Xrotation Yrotation Zrotation
						End Site
						{
							OFFSET 0.004641 -0.061770 0.000970
						}
					}
				}
			}
		}
	}
}
MOTION
Frames: 4
Frame Time: 0.040000
0 0 -0.2 0 0 180 0.000000 -0.050080 0.933467 -5.789922 -0.265526 88.286609 -0.000000 0.045650 0.072925 8.688047 -7.298353 34.325949 0.000000 -0.022105 0.063380 8.584497 1.970900 14.872904 0.000000 -0.012215 0.091098 -0.000002 0.000001 0.000004 0.022930 -0.009180 0.229518 -2.186249 5.210823 24.462657 0.136755 0.000469 0.015666 47.250296 54.701185 -112.126154 0.234221 0.004525 -0.003138 -5.558446 28.585890 -26.061604 0.212684 0.006106 0.000159 -85.094588 10.781102 19.328624 0.092008 -0.031038 0.000297 0.000000 0.000000 -0.000001 0.023321 0.000570 -0.003231 -0.000004 0.000000 -0.000000 0.020689 0.001655 -0.002999 0.000008 -0.000003 -0.000001 0.092159 -0.008797 0.003867 0.000006 -0.000000 -0.000000 0.030470 0.001014 -0.005929 0.000001 0.000002 -0.000000 0.025048 -0.000983 -0.004303 0.000003 0.000001 0.000000 0.082862 0.024648 -0.002414 0.000000 -0.000001 0.000001 0.019283 0.001560 -0.001667 0.000001 0.000000 0.000000 0.014370 0.000155 -0.000951 -0.000001 -0.000001 0.000000 0.088673 0.009084 0.002846 -0.000000 0.000000 0.000001 0.027029 0.001408 -0.004536 0.000000 0.000001 -0.000000 0.022190 -0.000874 -0.003490 0.000001 0.000002 -0.000001 0.031330 -0.025202 -0.003922 0.000004 0.000003 0.000003 0.009065 -0.015656 -0.021920 -0.000006 -0.000003 -0.000001 0.032392 -0.002609 -0.004763 -0.000001 -0.000001 0.000000 -0.022930 -0.009180 0.229522 -0.164468 5.647255 24.371285 -0.136757 0.000469 0.015666 -45.574389 -44.825538 -2.073241 -0.234220 0.004523 -0.003137 73.194739 -70.225082 116.132668 -0.212685 0.006104 0.000160 -16.979101 42.531902 6.353334 -0.092008 -0.031038 0.000298 -0.000004 -0.000003 0.000000 -0.023321 0.000570 -0.003231 0.000003 0.000001 -0.000001 -0.020690 0.001655 -0.002998 -0.000001 0.000003 -0.000001 -0.092159 -0.008797 0.003867 -0.000000 -0.000002 -0.000002 -0.030470 0.001014 -0.005929 0.000004 0.000002 -0.000001 -0.025048 -0.000983 -0.004303 -0.000003 0.000000 -0.000000 -0.082862 0.024648 -0.002413 -0.000004 -0.000003 -0.000001 -0.019283 0.001560 -0.001667 0.000000 0.000001 0.000001 -0.014370 0.000155 -0.000951 0.000002 -0.000001 0.000003 -0.088673 0.009084 0.002846 -0.000001 -0.000003 0.000000 -0.027029 0.001408 -0.004536 -0.000004 -0.000001 -0.000001 -0.022190 -0.000874 -0.003490 -0.000000 -0.000000 0.000000 -0.031330 -0.025202 -0.003922 -0.000004 -0.000005 -0.000003 -0.009062 -0.015655 -0.021922 -0.000002 0.000002 0.000004 -0.032392 -0.002610 -0.004767 -0.000003 0.000002 0.000003 -0.000000 0.013340 0.298010 4.363554 -10.076468 14.916546 -0.000001 -0.041895 0.111741 1.244229 2.985708 8.367427 0.095464 0.006192 -0.011170 -31.140239 1.993597 0.731058 0.013984 -0.030568 -0.374073 34.221082 9.467052 -3.008515 0.004191 0.018158 -0.382005 -0.000004 0.000003 -0.000001 0.005407 -0.109392 -0.057975 0.000003 -0.000001 -0.000001 -0.095466 0.006192 -0.011170 7.114696 -7.801871 -0.276798 -0.013984 -0.030568 -0.374073 15.751477 -5.940424 0.523470 -0.004192 0.018161 -0.382002 -0.000006 -0.000002 0.000004 -0.005408 -0.109394 -0.057975 -0.000001 0.000002 0.000001 
0 0 -0.2 0 0 180 0.000093 -0.050080 0.927307 -5.614836 -0.234809 88.289668 -0.000000 0.045650 0.072925 8.953424 -6.996672 34.376322 -0.000000 -0.022105 0.063381 8.584494 1.970903 14.872903 0.000000 -0.012215 0.091101 -0.000003 0.000000 -0.000006 0.022930 -0.009178 0.229520 -2.200624 5.270588 24.544485 0.136755 0.000470 0.015666 46.588222 54.653924 -112.182906 0.234221 0.004524 -0.003137 -5.558454 28.585878 -26.061611 0.212684 0.006104 0.000161 -85.094588 10.781097 19.328623 0.092008 -0.031038 0.000298 -0.000002 0.000001 -0.000000 0.023321 0.000570 -0.003231 -0.000005 -0.000001 -0.000000 0.020689 0.001655 -0.002999 0.000000 -0.000004 -0.000002 0.092159 -0.008797 0.003867 0.000004 -0.000001 0.000000 0.030470 0.001014 -0.005929 0.000005 0.000002 0.000000 0.025048 -0.000983 -0.004303 0.000001 -0.000001 0.000001 0.082862 0.024648 -0.002413 0.000001 0.000000 -0.000000 0.019283 0.001560 -0.001667 -0.000001 -0.000000 0.000000 0.014370 0.000155 -0.000951 -0.000000 0.000001 -0.000000 0.088673 0.009084 0.002846 -0.000000 0.000001 -0.000000 0.027029 0.001408 -0.004536 -0.000002 -0.000001 -0.000000 0.022190 -0.000874 -0.003490 -0.000002 0.000000 -0.000001 0.031330 -0.025202 -0.003922 0.000002 0.000004 0.000003 0.009065 -0.015656 -0.021920 -0.000003 -0.000002 0.000000 0.032392 -0.002609 -0.004763 -0.000003 -0.000001 0.000000 -0.022930 -0.009179 0.229522 -0.172679 5.709737 24.451563 -0.136755 0.000469 0.015665 -46.237444 -44.860662 -2.008960 -0.234221 0.004524 -0.003137 73.194793 -70.225082 116.132723 -0.212683 0.006108 0.000161 -16.979087 42.531906 6.353326 -0.092008 -0.031038 0.000298 -0.000003 -0.000001 0.000001 -0.023321 0.000570 -0.003231 0.000003 0.000002 0.000001 -0.020689 0.001655 -0.002998 0.000003 -0.000003 0.000002 -0.092159 -0.008797 0.003867 -0.000000 0.000001 -0.000003 -0.030470 0.001014 -0.005929 -0.000001 0.000000 0.000001 -0.025048 -0.000983 -0.004303 0.000001 0.000001 -0.000002 -0.082862 0.024648 -0.002413 0.000001 0.000002 -0.000000 -0.019283 0.001559 -0.001667 -0.000005 0.000002 0.000000 -0.014370 0.000155 -0.000951 -0.000000 -0.000002 0.000002 -0.088673 0.009084 0.002846 -0.000000 -0.000000 -0.000000 -0.027029 0.001408 -0.004536 -0.000002 -0.000000 -0.000001 -0.022190 -0.000874 -0.003490 0.000001 -0.000001 -0.000003 -0.031330 -0.025202 -0.003922 -0.000001 0.000000 -0.000005 -0.009062 -0.015655 -0.021922 -0.000003 0.000005 0.000000 -0.032392 -0.002610 -0.004767 -0.000003 0.000002 0.000001 -0.000000 0.013340 0.298010 4.289241 -10.070526 14.585782 -0.000000 -0.041894 0.111747 0.798894 2.954184 8.384301 0.095465 0.006192 -0.011170 -40.756080 1.026721 1.102155 0.013985 -0.030567 -0.374073 68.708479 10.750126 -7.407439 0.004190 0.018161 -0.382003 -0.000009 0.000002 -0.000002 0.005406 -0.109391 -0.057978 -0.000002 -0.000001 -0.000002 -0.095465 0.006192 -0.011171 -1.370811 -6.668811 -0.863276 -0.013985 -0.030568 -0.374075 23.799359 -7.862699 1.450355 -0.004191 0.018162 -0.382003 0.000003 -0.000003 -0.000004 -0.005408 -0.109393 -0.057975 0.000003 0.000005 -0.000001 
0 0 -0.2 0 0 180 0.000181 -0.050080 0.910454 -5.121672 -0.148234 88.297803 -0.000000 0.045650 0.072925 9.698769 -6.145578 34.510501 -0.000000 -0.022105 0.063380 8.584491 1.970900 14.872909 0.000000 -0.012215 0.091100 -0.000004 -0.000002 -0.000013 0.022930 -0.009179 0.229522 -2.244224 5.450385 24.790937 0.136756 0.000470 0.015664 44.726094 54.522777 -112.347637 0.234221 0.004524 -0.003137 -5.558446 28.585890 -26.061598 0.212684 0.006105 0.000161 -85.094588 10.781116 19.328621 0.092008 -0.031038 0.000298 -0.000003 0.000001 -0.000001 0.023321 0.000570 -0.003231 -0.000007 -0.000000 -0.000000 0.020690 0.001655 -0.002999 0.000005 -0.000003 -0.000001 0.092159 -0.008797 0.003867 0.000006 -0.000001 -0.000001 0.030470 0.001014 -0.005929 0.000001 0.000002 -0.000000 0.025048 -0.000983 -0.004303 0.000004 0.000001 -0.000000 0.082862 0.024648 -0.002413 0.000000 -0.000000 -0.000002 0.019283 0.001560 -0.001667 -0.000003 0.000001 -0.000000 0.014370 0.000155 -0.000951 -0.000001 -0.000002 -0.000000 0.088673 0.009084 0.002846 0.000001 0.000001 -0.000000 0.027029 0.001408 -0.004536 -0.000001 -0.000001 0.000000 0.022190 -0.000874 -0.003490 0.000001 0.000000 -0.000001 0.031330 -0.025203 -0.003922 -0.000001 0.000003 0.000001 0.009065 -0.015656 -0.021920 -0.000005 -0.000001 -0.000002 0.032392 -0.002609 -0.004763 0.000000 -0.000002 0.000000 -0.022930 -0.009180 0.229520 -0.197613 5.897792 24.693248 -0.136756 0.000470 0.015668 -48.108004 -44.962449 -1.830680 -0.234221 0.004524 -0.003137 73.194780 -70.225082 116.132723 -0.212684 0.006105 0.000160 -16.979090 42.531909 6.353327 -0.092008 -0.031038 0.000298 0.000002 0.000001 -0.000000 -0.023321 0.000570 -0.003231 -0.000000 -0.000001 0.000000 -0.020689 0.001655 -0.002998 0.000002 0.000001 0.000001 -0.092159 -0.008797 0.003867 0.000003 0.000001 -0.000000 -0.030470 0.001014 -0.005929 -0.000001 -0.000000 0.000000 -0.025048 -0.000983 -0.004303 -0.000001 -0.000002 -0.000001 -0.082862 0.024648 -0.002413 0.000001 0.000002 -0.000001 -0.019283 0.001559 -0.001667 0.000002 0.000001 -0.000002 -0.014370 0.000155 -0.000951 0.000000 0.000002 -0.000000 -0.088673 0.009084 0.002846 0.000005 0.000001 -0.000001 -0.027029 0.001408 -0.004536 -0.000009 0.000001 0.000001 -0.022190 -0.000874 -0.003490 -0.000004 -0.000000 -0.000000 -0.031330 -0.025202 -0.003922 -0.000001 -0.000004 -0.000003 -0.009062 -0.015655 -0.021922 0.000004 0.000003 0.000000 -0.032392 -0.002610 -0.004767 -0.000003 0.000004 -0.000000 -0.000001 0.013340 0.298010 4.065691 -10.050108 13.589769 0.000001 -0.041894 0.111747 -0.456565 2.869671 8.459926 0.095465 0.006192 -0.011170 -40.326246 2.213776 1.806435 0.013985 -0.030567 -0.374071 91.251997 7.741556 -7.641857 0.004191 0.018159 -0.382004 0.000008 0.000002 -0.000001 0.005407 -0.109393 -0.057974 0.000002 0.000004 -0.000005 -0.095465 0.006193 -0.011170 -7.986929 -5.778857 -1.056381 -0.013986 -0.030568 -0.374075 24.867588 -8.520523 1.747456 -0.004191 0.018160 -0.382004 0.000007 -0.000004 0.000003 -0.005407 -0.109394 -0.057975 -0.000001 -0.000001 0.000001 
0 0 -0.2 0 0 180 0.000108 -0.050080 0.889371 -4.488455 -0.036979 88.307161 -0.000000 0.045650 0.072925 10.651354 -5.050242 34.666195 -0.000000 -0.022105 0.063379 8.584487 1.970900 14.872901 -0.000000 -0.012215 0.091100 -0.000001 0.000000 0.000002 0.022931 -0.009181 0.229516 -2.316362 5.742440 25.192173 0.136756 0.000471 0.015668 42.341914 54.358996 -112.569051 0.234220 0.004524 -0.003136 -5.558449 28.585882 -26.061603 0.212685 0.006104 0.000160 -85.094588 10.781099 19.328624 0.092008 -0.031038 0.000297 -0.000003 0.000000 0.000000 0.023321 0.000570 -0.003231 -0.000004 -0.000001 -0.000000 0.020689 0.001655 -0.002999 0.000004 -0.000001 -0.000001 0.092159 -0.008797 0.003867 0.000007 -0.000002 -0.000000 0.030470 0.001014 -0.005929 -0.000000 0.000002 0.000000 0.025048 -0.000983 -0.004303 0.000002 0.000003 0.000000 0.082862 0.024648 -0.002413 0.000001 -0.000001 -0.000000 0.019283 0.001560 -0.001667 0.000003 0.000000 -0.000001 0.014370 0.000155 -0.000951 -0.000003 -0.000001 0.000000 0.088673 0.009084 0.002846 0.000001 0.000000 0.000001 0.027029 0.001408 -0.004536 -0.000003 0.000000 -0.000000 0.022190 -0.000874 -0.003490 -0.000000 0.000000 -0.000001 0.031330 -0.025203 -0.003922 -0.000001 0.000002 -0.000002 0.009065 -0.015656 -0.021920 -0.000000 -0.000001 -0.000000 0.032392 -0.002609 -0.004763 -0.000001 -0.000000 0.000001 -0.022930 -0.009180 0.229518 -0.239152 6.203513 25.086494 -0.136756 0.000469 0.015664 -50.514908 -45.099189 -1.608261 -0.234221 0.004524 -0.003137 73.194787 -70.225089 116.132682 -0.212685 0.006102 0.000160 -16.979090 42.531902 6.353325 -0.092008 -0.031038 0.000298 -0.000002 -0.000000 -0.000000 -0.023321 0.000570 -0.003231 -0.000000 0.000001 -0.000001 -0.020689 0.001655 -0.002998 -0.000001 0.000000 0.000002 -0.092159 -0.008797 0.003867 0.000001 0.000001 0.000000 -0.030470 0.001014 -0.005929 0.000006 0.000001 0.000001 -0.025048 -0.000983 -0.004303 -0.000005 0.000001 -0.000002 -0.082862 0.024648 -0.002413 -0.000001 0.000000 -0.000000 -0.019283 0.001559 -0.001667 -0.000003 -0.000000 0.000001 -0.014370 0.000155 -0.000951 0.000006 -0.000001 0.000001 -0.088673 0.009084 0.002846 -0.000005 -0.000001 0.000001 -0.027029 0.001408 -0.004536 -0.000001 0.000000 0.000000 -0.022190 -0.000874 -0.003490 0.000002 0.000003 -0.000000 -0.031330 -0.025203 -0.003922 -0.000001 -0.000003 -0.000007 -0.009062 -0.015655 -0.021922 0.000004 0.000005 0.000000 -0.032392 -0.002610 -0.004767 -0.000002 -0.000003 0.000000 -0.000000 0.013340 0.298008 3.702704 -10.008702 11.968853 -0.000001 -0.041896 0.111745 -2.071191 2.771044 8.633462 0.095466 0.006192 -0.011170 -35.747762 2.954133 1.997832 0.013986 -0.030569 -0.374071 98.244533 5.976666 -6.395472 0.004191 0.018160 -0.382004 0.000007 0.000003 -0.000003 0.005408 -0.109395 -0.057974 0.000001 -0.000004 -0.000003 -0.095464 0.006192 -0.011170 -12.570248 -5.152162 -0.997641 -0.013984 -0.030568 -0.374073 21.460874 -8.277607 1.495274 -0.004191 0.018159 -0.382005 -0.000003 0.000001 0.000004 -0.005408 -0.109392 -0.057975 -0.000002 -0.000007 0.000001 
